# xmcd CD database file
#
# Track frame offsets:
#	150
#	45207
#	94455
#	126662
#	180817
#	217272
#
# Disc length: 3618 seconds
#
# Revision: 0
# Processed by: cddbd v1.5.2PL0 Copyright (c) Steve Scherf et al.
# Submitted via: CDex 1.70beta2
#
DISCID=520e2006
DTITLE=Masahiko Togashi - Essence Of Jazz
DYEAR=1987
DGENRE=Jazz
TTITLE0=Clock
TTITLE1=Rapid
TTITLE2=Morning Blue
TTITLE3=In The Darkness
TTITLE4=In The Pot
TTITLE5=Spring Song
EXTD=YEAR: 1987
EXTT0=
EXTT1=
EXTT2=
EXTT3=
EXTT4=
EXTT5=
PLAYORDER=
